<?xml version="1.0" encoding="iso-8859-1"?>
<!-- Generator: Adobe Illustrator 18.0.0, SVG Export Plug-In . SVG Version: 6.00 Build 0)  -->
<!DOCTYPE svg PUBLIC "-//W3C//DTD SVG 1.1//EN" "http://www.w3.org/Graphics/SVG/1.1/DTD/svg11.dtd">
<svg version="1.1" id="Capa_1" xmlns="http://www.w3.org/2000/svg" xmlns:xlink="http://www.w3.org/1999/xlink" x="0px" y="0px"
	 viewBox="0 0 264.018 264.018" style="enable-background:new 0 0 264.018 264.018;" xml:space="preserve">
<g>
	<path  d="M132.009,0c-42.66,0-77.366,34.706-77.366,77.366c0,11.634,2.52,22.815,7.488,33.24c0.1,0.223,0.205,0.442,0.317,0.661
		l58.454,113.179c2.146,4.154,6.431,6.764,11.106,6.764c4.676,0,8.961-2.609,11.106-6.764l58.438-113.148
		c0.101-0.195,0.195-0.392,0.285-0.591c5.001-10.455,7.536-21.67,7.536-33.341C209.375,34.706,174.669,0,132.009,0z
		 M132.009,117.861c-22.329,0-40.495-18.166-40.495-40.495c0-22.328,18.166-40.494,40.495-40.494s40.495,18.166,40.495,40.494
		C172.504,99.695,154.338,117.861,132.009,117.861z"/>
	<path fill="#ffffff"  d="M161.81,249.018h-59.602c-4.143,0-7.5,3.357-7.5,7.5c0,4.143,3.357,7.5,7.5,7.5h59.602c4.143,0,7.5-3.357,7.5-7.5
		C169.31,252.375,165.952,249.018,161.81,249.018z"/>
</g>
<g>
</g>
<g>
</g>
<g>
</g>
<g>
</g>
<g>
</g>
<g>
</g>
<g>
</g>
<g>
</g>
<g>
</g>
<g>
</g>
<g>
</g>
<g>
</g>
<g>
</g>
<g>
</g>
<g>
</g>
</svg>
